<svg width="28" height="40" viewBox="0 0 28 40" fill="none" xmlns="http://www.w3.org/2000/svg">
<path d="M28 26.263C28 33.85 21.732 40 14 40C6.268 40 0 33.85 0 26.263C0 14.243 14 0 14 0C14 0 28 14.242 28 26.263Z" fill="#EA4444"/>
<path fill-rule="evenodd" clip-rule="evenodd" d="M14 38C20.663 38 26 32.71 26 26.263C26 20.906 22.822 14.777 19.355 9.761C17.7065 7.38657 15.9184 5.11223 14 2.95C12.0816 5.11223 10.2935 7.38657 8.645 9.761C5.178 14.777 2 20.906 2 26.263C2 32.709 7.337 38 14 38ZM12.64 1.47C9.122 5.409 0 16.56 0 26.263C0 33.85 6.268 40 14 40C21.732 40 28 33.85 28 26.263C28 16.56 18.878 5.409 15.36 1.47C14.52 0.53 14 0 14 0C14 0 13.48 0.53 12.64 1.47Z" fill="#EA4444"/>
</svg>
