<svg width="20" height="20" viewBox="0 0 20 20" fill="none" xmlns="http://www.w3.org/2000/svg">
<path d="M4.39038 8.12508C4.38931 7.38415 4.53488 6.65028 4.8187 5.96584C5.10251 5.28137 5.51892 4.65984 6.04382 4.137C6.56888 3.61416 7.1922 3.20034 7.87778 2.91939C8.56351 2.63847 9.29791 2.49596 10.0389 2.50008C13.1326 2.52354 15.6091 5.09384 15.6091 8.19538V8.75008C15.6091 11.547 16.195 13.172 16.7106 14.0626C16.7654 14.1574 16.7944 14.265 16.7944 14.3745C16.7946 14.4841 16.7659 14.5917 16.7112 14.6866C16.6566 14.7816 16.578 14.8605 16.4834 14.9155C16.3887 14.9706 16.2811 14.9997 16.1717 15.0001H3.82794C3.71838 14.9997 3.61081 14.9706 3.5162 14.9155C3.42145 14.8605 3.34286 14.7816 3.28824 14.6866C3.23361 14.5917 3.20493 14.4841 3.20508 14.3745C3.20523 14.265 3.23407 14.1574 3.28885 14.0626C3.80444 13.172 4.39038 11.547 4.39038 8.75008V8.12508Z" stroke="#747474" stroke-opacity="0.52"/>
<path d="M13.125 15.625V15C13.125 14.6548 12.8452 14.375 12.5 14.375C12.1548 14.375 11.875 14.6548 11.875 15V15.625C11.875 16.4016 11.3258 16.9508 11.3258 16.9508C10.7766 17.5 10 17.5 10 17.5C9.22335 17.5 8.67417 16.9508 8.67417 16.9508C8.125 16.4016 8.125 15.625 8.125 15.625V15C8.125 14.6548 7.84518 14.375 7.5 14.375C7.15482 14.375 6.875 14.6548 6.875 15L6.875 15.625C6.875 16.9194 7.79029 17.8347 7.79029 17.8347C8.70558 18.75 10 18.75 10 18.75C11.2944 18.75 12.2097 17.8347 12.2097 17.8347C13.125 16.9194 13.125 15.625 13.125 15.625Z" fill="black" fill-opacity="0.28"/>
</svg>
